<?xml version="1.0" encoding="UTF-8"?>
<svg width="75px" height="30px" viewBox="0 0 75 30" version="1.1" xmlns="http://www.w3.org/2000/svg" xmlns:xlink="http://www.w3.org/1999/xlink">
    <!-- Generator: Sketch 48.2 (47327) - http://www.bohemiancoding.com/sketch -->
    <title>Artboard Copy 5</title>
    <desc>Created with Sketch.</desc>
    <defs></defs>
    <g id="Page-1" stroke="none" stroke-width="1" fill="none" fill-rule="evenodd">
        <g id="Artboard-Copy-5">
            <path d="M17.6549272,23.6464947 L12.8993056,23.6464947 L5.22271825,10.2969577 L5.1140873,10.2969577 C5.26697607,12.6546635 5.34341931,14.3364147 5.34341931,15.3422619 L5.34341931,23.6464947 L2,23.6464947 L2,6 L6.71941138,6 L14.3839286,19.2167659 L14.4684193,19.2167659 C14.3477177,16.9234343 14.2873677,15.302033 14.2873677,14.3525132 L14.2873677,6 L17.6549272,6 L17.6549272,23.6464947 Z" id="Path" fill="#FFFFFF"></path>
            <polygon id="Path" fill="#FFFFFF" points="53 23.6464947 53 6 56.7417328 6 56.7417328 23.6464947"></polygon>
            <polygon id="Path" fill="#FFFFFF" points="68.5335648 23.6464947 64.791832 23.6464947 64.791832 9.1140873 60 9.1140873 60 6 73.3253968 6 73.3253968 9.1140873 68.5335648 9.1140873"></polygon>
            <path d="M47.2873677,6 L51.0653108,6 L45.0664683,23.6464947 L40.9867725,23.6464947 L35,6 L38.7779431,6 L42.0972222,16.5009921 C42.2822981,17.1205939 42.4734062,17.8427814 42.6705522,18.6675761 C42.8676983,19.4923707 42.9904098,20.065695 43.0386905,20.3875661 C43.127205,19.6472626 43.4289547,18.3517509 43.9439484,16.5009921 L47.2873677,6 Z" id="Path" fill="#FF445B"></path>
            <path d="M23.7779431,23.6464947 L20,23.6464947 L25.9988426,6 L30.0785384,6 L36.0653108,23.6464947 L32.2873677,23.6464947 L28.9680886,13.1455026 C28.7830127,12.5259008 28.5919046,11.8037133 28.3947586,10.9789187 C28.1976126,10.154124 28.074901,9.58079967 28.0266204,9.25892857 C27.9381058,9.9992321 27.6363562,11.2947438 27.1213624,13.1455026 L23.7779431,23.6464947 Z" id="Path" fill="#06D6A0"></path>
        </g>
    </g>
</svg>