<?xml version="1.0" encoding="UTF-8"?>
<svg width="75px" height="75px" viewBox="0 0 75 75" version="1.1" xmlns="http://www.w3.org/2000/svg" xmlns:xlink="http://www.w3.org/1999/xlink">
    <!-- Generator: Sketch 48.2 (47327) - http://www.bohemiancoding.com/sketch -->
    <title>Artboard</title>
    <desc>Created with Sketch.</desc>
    <defs></defs>
    <g id="Page-1" stroke="none" stroke-width="1" fill="none" fill-rule="evenodd">
        <g id="Artboard" fill="#999999">
            <path d="M52.8153173,22.4839615 C55.5525105,22.4839615 58.0941517,23.1682496 60.4403173,24.5368462 C62.7864829,25.9054427 64.6316167,27.762796 65.975774,30.1089615 C67.3199314,32.4551271 67.992,35.0212072 67.992,37.8072788 C67.992,40.5933505 67.3199314,43.1594306 65.975774,45.5055962 C64.6316167,47.8517617 62.7864829,49.709115 60.4403173,51.0777115 C58.0941517,52.4463081 55.5525105,53.1305962 52.8153173,53.1305962 L40.4980096,53.1305962 L40.4980096,47.2652115 L52.8153173,47.2652115 C54.4771846,47.2652115 56.0412715,46.8375315 57.507625,45.9821587 C58.9739785,45.1267858 60.1348242,43.96594 60.9901971,42.4995865 C61.84557,41.0332331 62.27325,39.4691461 62.27325,37.8072788 C62.27325,36.1454116 61.84557,34.5813246 60.9901971,33.1149712 C60.1348242,31.6486177 58.9739785,30.4877719 57.507625,29.632399 C56.0412715,28.7770262 54.4771846,28.3493462 52.8153173,28.3493462 L40.4980096,28.3493462 L40.4980096,22.4839615 L52.8153173,22.4839615 Z M25.3213269,40.8132885 L25.3213269,34.8012692 L49.6626731,34.8012692 L49.6626731,40.8132885 L25.3213269,40.8132885 Z M12.71075,37.8072788 C12.71075,39.4691461 13.13843,41.0332331 13.9938029,42.4995865 C14.8491758,43.96594 16.0100215,45.1267858 17.476375,45.9821587 C18.9427285,46.8375315 20.5068154,47.2652115 22.1686827,47.2652115 L34.4859904,47.2652115 L34.4859904,53.1305962 L22.1686827,53.1305962 C19.4314895,53.1305962 16.8898483,52.4463081 14.5436827,51.0777115 C12.1975171,49.709115 10.3523833,47.8517617 9.00822596,45.5055962 C7.6640686,43.1594306 6.992,40.5933505 6.992,37.8072788 C6.992,35.0212072 7.6640686,32.4551271 9.00822596,30.1089615 C10.3523833,27.762796 12.1975171,25.9054427 14.5436827,24.5368462 C16.8898483,23.1682496 19.4314895,22.4839615 22.1686827,22.4839615 L34.4859904,22.4839615 L34.4859904,28.3493462 L22.1686827,28.3493462 C20.5068154,28.3493462 18.9427285,28.7770262 17.476375,29.632399 C16.0100215,30.4877719 14.8491758,31.6486177 13.9938029,33.1149712 C13.13843,34.5813246 12.71075,36.1454116 12.71075,37.8072788 Z" id="link---material"></path>
        </g>
    </g>
</svg>