<?xml version="1.0" encoding="UTF-8"?>
<svg width="75px" height="51px" viewBox="0 0 75 51" version="1.1" xmlns="http://www.w3.org/2000/svg" xmlns:xlink="http://www.w3.org/1999/xlink">
    <!-- Generator: Sketch 48.2 (47327) - http://www.bohemiancoding.com/sketch -->
    <title>Artboard Copy 3</title>
    <desc>Created with Sketch.</desc>
    <defs></defs>
    <g id="Page-1" stroke="none" stroke-width="1" fill="none" fill-rule="evenodd" opacity="0.600000024">
        <g id="Artboard-Copy-3" fill="#999999">
            <path d="M42.2728365,20 C43.1254049,20 43.9170637,20.2232833 44.6478365,20.6698565 C45.3786094,21.1164297 45.9533232,21.7224842 46.3719952,22.4880383 C46.7906672,23.2535923 47,24.0909045 47,25 C47,25.9090955 46.7906672,26.7464077 46.3719952,27.5119617 C45.9533232,28.2775158 45.3786094,28.8835703 44.6478365,29.3301435 C43.9170637,29.7767167 43.1254049,30 42.2728365,30 L38.4362981,30 L38.4362981,28.0861244 L42.2728365,28.0861244 C42.7904673,28.0861244 43.2776419,27.9465724 43.734375,27.6674641 C44.1911081,27.3883559 44.552683,27.0095718 44.8191106,26.5311005 C45.0855382,26.0526292 45.21875,25.5422675 45.21875,25 C45.21875,24.4577325 45.0855382,23.9473708 44.8191106,23.4688995 C44.552683,22.9904282 44.1911081,22.6116441 43.734375,22.3325359 C43.2776419,22.0534276 42.7904673,21.9138756 42.2728365,21.9138756 L38.4362981,21.9138756 L38.4362981,20 L42.2728365,20 Z M33.7091346,25.9808612 L33.7091346,24.0191388 L41.2908654,24.0191388 L41.2908654,25.9808612 L33.7091346,25.9808612 Z M29.78125,25 C29.78125,25.5422675 29.9144618,26.0526292 30.1808894,26.5311005 C30.447317,27.0095718 30.8088919,27.3883559 31.265625,27.6674641 C31.7223581,27.9465724 32.2095327,28.0861244 32.7271635,28.0861244 L36.5637019,28.0861244 L36.5637019,30 L32.7271635,30 C31.8745951,30 31.0829363,29.7767167 30.3521635,29.3301435 C29.6213906,28.8835703 29.0466768,28.2775158 28.6280048,27.5119617 C28.2093328,26.7464077 28,25.9090955 28,25 C28,24.0909045 28.2093328,23.2535923 28.6280048,22.4880383 C29.0466768,21.7224842 29.6213906,21.1164297 30.3521635,20.6698565 C31.0829363,20.2232833 31.8745951,20 32.7271635,20 L36.5637019,20 L36.5637019,21.9138756 L32.7271635,21.9138756 C32.2095327,21.9138756 31.7223581,22.0534276 31.265625,22.3325359 C30.8088919,22.6116441 30.447317,22.9904282 30.1808894,23.4688995 C29.9144618,23.9473708 29.78125,24.4577325 29.78125,25 Z" id="link---material"></path>
        </g>
    </g>
</svg>